<svg width="156" height="200" viewBox="0 0 156 200" fill="none" xmlns="http://www.w3.org/2000/svg">
<path d="M1 1H122C130.752 1 139.146 4.16071 145.335 9.7868C151.523 15.4129 155 23.0435 155 31V171C155 173.652 153.841 176.196 151.778 178.071C149.715 179.946 146.917 181 144 181H111" stroke="black" stroke-width="2" stroke-linecap="round" stroke-linejoin="round"/>
<path d="M78 101V121M1 1L84.468 16.18C91.948 17.5392 98.679 21.2121 103.516 26.5739C108.353 31.9358 110.998 38.6555 111 45.59V188.8C110.999 190.279 110.637 191.739 109.941 193.076C109.244 194.412 108.23 195.592 106.972 196.529C105.713 197.466 104.242 198.138 102.664 198.496C101.085 198.854 99.4392 198.89 97.844 198.6L18.688 184.22C13.6989 183.313 9.20961 180.863 5.98454 177.286C2.75947 173.708 0.997987 169.225 1 164.6V1Z" stroke="black" stroke-width="2" stroke-linecap="round" stroke-linejoin="round"/>
</svg>
