<svg width="152" height="157" viewBox="0 0 152 157" fill="none" xmlns="http://www.w3.org/2000/svg">
<path d="M72.1998 118.803L119.041 70.421C111.161 67.0208 104.004 62.0555 97.9765 55.8069C91.9239 49.5796 87.1145 42.1849 83.8215 34.0428L36.9801 82.425C33.3258 86.1995 31.4955 88.0901 29.9248 90.1703C28.0716 92.6266 26.4811 95.2827 25.1811 98.0923C24.0855 100.473 23.2685 103.012 21.6345 108.075L13.0085 134.784C12.6114 136.007 12.5525 137.321 12.8384 138.576C13.1242 139.832 13.7434 140.98 14.6264 141.892C15.5095 142.804 16.6213 143.444 17.8369 143.739C19.0525 144.034 20.3238 143.973 21.5078 143.563L47.3668 134.654C52.2751 132.966 54.7261 132.122 57.0315 130.99C59.7632 129.647 62.3198 128.014 64.7011 126.091C66.7151 124.468 68.5455 122.578 72.1998 118.803ZM132.037 56.9975C136.708 52.1735 139.331 45.6307 139.331 38.8084C139.331 31.9862 136.708 25.4434 132.037 20.6193C127.367 15.7953 121.032 13.0851 114.427 13.0851C107.822 13.0851 101.488 15.7953 96.8175 20.6193L91.1998 26.4218L91.4405 27.1479C94.208 35.3301 98.7384 42.7563 104.69 48.8662C110.782 55.1974 118.223 59.969 126.419 62.8L132.037 56.9975Z" fill="black"/>
</svg>
