<svg width="2448" height="1645" viewBox="0 0 2448 1645" fill="none" xmlns="http://www.w3.org/2000/svg">
<path d="M537.846 125.216H106.115V880.551H537.846V125.216Z" fill="#FAFAFA"/>
<path d="M240.613 887.775C240.613 887.775 193.269 547.975 168.529 510.613C168.529 510.613 309.979 404.427 314.29 116.594H99.6675V887.775H240.613Z" fill="#F5F5F5"/>
<path d="M403.309 886.299C403.309 886.299 450.575 546.461 475.354 509.137C475.354 509.137 333.943 402.913 329.593 115.118H544.215V886.299H403.309Z" fill="#F5F5F5"/>
<path d="M549.187 96.4365H66.1108V905.525H569.228V96.4365H549.187ZM192.88 516.788V709.195H106.115V516.788H192.88ZM106.115 502.884V303.758H192.88V502.884H106.115ZM324.971 502.884V303.758H433.719V502.884H324.971ZM433.719 516.788V709.195H324.971V516.788H433.719ZM196.803 502.884V303.758H311.105V502.884H196.803ZM311.105 516.788V709.195H196.764V516.788H311.105ZM196.764 300.184V125.41H311.067V300.184H196.764ZM311.067 712.652V880.629H196.764V712.652H311.067ZM324.971 712.652H433.719V880.629H324.971V712.652ZM324.971 300.301V125.41H433.719V300.184L324.971 300.301ZM437.37 516.788H529.185V709.195H437.37V516.788ZM437.37 502.884V303.758H529.185V502.884H437.37ZM529.185 300.184H437.37V125.41H529.185V300.184ZM192.88 125.41V300.184H106.115V125.41H192.88ZM106.115 712.652H192.88V880.629H106.115V712.652ZM437.37 880.629V712.652H529.185V880.629H437.37Z" fill="#EBEBEB"/>
<path d="M2007.81 274.862H694.25V1154.64H2007.81V274.862Z" fill="#F5F5F5"/>
<path d="M2007.81 274.862H694.25V362.754H2007.81V274.862Z" fill="#EBEBEB"/>
<path d="M751.148 318.788C751.304 320.921 750.814 323.051 749.742 324.901C748.67 326.751 747.065 328.235 745.137 329.16C743.209 330.085 741.047 330.407 738.933 330.086C736.819 329.764 734.851 328.813 733.286 327.356C731.72 325.9 730.63 324.005 730.157 321.92C729.684 319.835 729.85 317.655 730.633 315.666C731.417 313.676 732.782 311.969 734.55 310.766C736.318 309.563 738.407 308.921 740.545 308.923C743.259 308.829 745.899 309.814 747.886 311.664C749.874 313.513 751.047 316.075 751.148 318.788Z" fill="#FAFAFA"/>
<path d="M785.404 318.788C785.56 320.921 785.07 323.051 783.998 324.901C782.925 326.751 781.321 328.235 779.393 329.16C777.465 330.085 775.303 330.407 773.189 330.086C771.075 329.764 769.107 328.813 767.541 327.356C765.976 325.9 764.885 324.005 764.412 321.92C763.939 319.835 764.105 317.655 764.889 315.666C765.672 313.676 767.037 311.969 768.805 310.766C770.573 309.563 772.662 308.921 774.801 308.923C777.514 308.829 780.154 309.814 782.142 311.664C784.129 313.513 785.302 316.075 785.404 318.788Z" fill="#FAFAFA"/>
<path d="M819.659 318.788C819.816 320.921 819.326 323.051 818.253 324.901C817.181 326.751 815.577 328.235 813.649 329.16C811.721 330.085 809.559 330.407 807.445 330.086C805.331 329.764 803.363 328.813 801.797 327.356C800.232 325.9 799.141 324.005 798.668 321.92C798.195 319.835 798.361 317.655 799.144 315.666C799.928 313.676 801.293 311.969 803.061 310.766C804.829 309.563 806.918 308.921 809.056 308.923C811.77 308.829 814.41 309.814 816.398 311.664C818.385 313.513 819.558 316.075 819.659 318.788Z" fill="#FAFAFA"/>
<path d="M2409.95 448.704H2146.04V792.854L2409.95 799.495V448.704Z" fill="#EBEBEB"/>
<path d="M2392.59 460.977H2161.65V773.085L2392.59 780.891V460.977Z" fill="#FAFAFA"/>
<path d="M2352.16 517.681L2198.9 511.855V730.013H2352.16V517.681Z" fill="#EBEBEB"/>
<path d="M2198.9 730.013L2352.16 617.924L2198.9 511.855V730.013Z" fill="#F5F5F5"/>
<path d="M2380.86 206.544L2233.97 201.961V393.514L2380.86 397.204V206.544Z" fill="#EBEBEB"/>
<path d="M2371.19 214.895L2242.67 208.797V382.484L2371.19 386.834V214.895Z" fill="#FAFAFA"/>
<path d="M2348.7 240.334L2263.41 237.11V358.52H2348.7V240.334Z" fill="#EBEBEB"/>
<path d="M2263.41 358.52L2348.7 296.145L2263.41 237.11V358.52Z" fill="#F5F5F5"/>
<path d="M1370.31 44.3149L1356.26 174.891H1536.51L1551.46 44.3149H1370.31Z" fill="#EBEBEB"/>
<path d="M1377.73 52.8984L1364.02 167.162H1526.72L1539.88 52.8984H1377.73Z" fill="#FAFAFA"/>
<path d="M1405.11 72.9004L1396.69 148.752H1499.34L1504.62 72.9004H1405.11Z" fill="#EBEBEB"/>
<path d="M1605.52 0L1586.65 174.891H1828.15L1848.19 0H1605.52Z" fill="#EBEBEB"/>
<path d="M1615.43 11.4963L1597.09 164.56H1815.06L1832.69 11.4963H1615.43Z" fill="#FAFAFA"/>
<path d="M1652.13 38.2949L1640.83 139.858H1778.35L1785.42 38.2949H1652.13Z" fill="#EBEBEB"/>
<path d="M1938.33 174.891H1235.04V195.009H1938.33V174.891Z" fill="#EBEBEB"/>
<path d="M1355.36 243.946L1324.56 195.009H1370.31V243.946H1355.36Z" fill="#EBEBEB"/>
<path d="M1339.44 195.009L1366.66 243.946H1370.31V195.009H1339.44Z" fill="#E0E0E0"/>
<path d="M1761.15 243.946L1730.35 195.009H1776.1V243.946H1761.15Z" fill="#EBEBEB"/>
<path d="M1745.23 195.009L1772.45 243.946H1776.1V195.009H1745.23Z" fill="#E0E0E0"/>
<path d="M393.754 1370.93C458.498 1328.6 474.927 1247.46 474.189 1174.21C474.189 1161.98 475.743 1149.12 470.111 1138.25C464.48 1127.37 450.925 1119.76 439.7 1124.61C430.418 1128.69 426.146 1139.14 420.786 1147.92C413.597 1159.44 403.297 1168.69 391.074 1174.6C383.112 1178.48 373.286 1180.66 365.596 1176.23C355.071 1170.17 354.178 1155.57 354.527 1143.41L356.624 1075.48C357.674 1063.34 356.716 1051.11 353.789 1039.29C350.255 1027.63 342.138 1016.76 330.486 1013.22C318.834 1009.69 304.192 1016.02 301.435 1027.87C300.85 1032.89 300.617 1037.95 300.736 1043.01C300.269 1048.02 297.745 1053.58 292.968 1054.67C288.191 1055.75 283.18 1052.41 279.568 1048.76C267.179 1036.18 258.906 1020.18 251.255 1004.25C243.604 988.329 235.991 972.094 224.728 958.423C213.465 944.752 197.852 933.761 180.219 932.362C162.586 930.964 143.555 941.256 138.895 958.229C134.234 975.201 143.711 992.912 154.43 1007.05C170.309 1028.04 189.133 1046.63 210.319 1062.24C214.461 1064.62 217.729 1068.27 219.64 1072.65C222.126 1080.8 214.164 1088.65 205.969 1091.14C196.725 1093.93 186.783 1092.77 177.151 1093.62C167.519 1094.48 157.032 1098.44 153.187 1107.33C147.827 1119.64 158.042 1132.89 168.179 1141.66C188.562 1159.29 211.813 1173.29 236.923 1183.07C245.895 1186.52 255.333 1189.63 262.479 1196.08C269.626 1202.52 273.781 1213.59 269.16 1222.02C264.538 1230.45 253.158 1232.97 243.681 1230.99C234.205 1229.01 225.893 1223.77 216.922 1220.16C200.143 1213.44 178.083 1214.1 167.091 1228.27C163.663 1233.14 161.424 1238.74 160.554 1244.63C159.684 1250.52 160.207 1256.53 162.081 1262.18C165.961 1273.44 172.062 1283.81 180.025 1292.67C206.186 1325.18 240.472 1350.21 279.413 1365.22C318.252 1379.59 354.644 1384.1 393.987 1370.93" fill="#FF725E"/>
<path d="M156.877 941.994L158.042 943.159L161.615 946.5C164.8 949.374 169.383 953.646 175.287 959.278C191.815 975.18 207.122 992.304 221.077 1010.51C229.971 1022.16 239.176 1034.97 248.808 1049.11C258.44 1063.25 268.616 1078.4 278.675 1094.75C289.336 1111.76 299.06 1129.34 307.804 1147.41C312.31 1156.81 316.31 1166.64 320.388 1176.66L332.7 1207.11C348.595 1245.64 362.288 1285.05 373.714 1325.14C382.913 1357.89 388.973 1391.44 391.812 1425.34C393.644 1448.22 393.462 1471.21 391.269 1494.05C390.453 1502.13 389.676 1508.38 388.977 1512.61C388.705 1514.63 388.472 1516.22 388.278 1517.43C388.244 1517.97 388.244 1518.52 388.278 1519.06C388.483 1518.55 388.614 1518.01 388.666 1517.47L389.599 1512.69C390.414 1508.46 391.346 1502.2 392.317 1494.13C394.849 1471.25 395.265 1448.18 393.56 1425.23C390.919 1391.19 384.975 1357.48 375.811 1324.59C364.475 1284.4 350.807 1244.9 334.875 1206.29L322.563 1175.8C318.485 1165.82 314.446 1155.92 309.863 1146.48C301.094 1128.33 291.304 1110.7 280.539 1093.66C270.364 1077.31 260.149 1062.16 250.439 1048.02C240.73 1033.89 231.447 1020.84 222.437 1009.53C208.294 991.351 192.708 974.336 175.83 958.656C169.888 953.102 165.15 948.908 161.887 946.15L158.003 943.004C157.662 942.632 157.284 942.294 156.877 941.994Z" fill="#263238"/>
<path d="M309.163 1146.36C309.797 1144.7 310.24 1142.96 310.484 1141.2C311.222 1137.86 312.115 1133 313.125 1126.98C315.145 1114.9 317.397 1098.16 319.805 1079.68C322.213 1061.19 324.66 1044.53 326.874 1032.53C327.961 1026.51 328.894 1021.69 329.593 1018.31C330.055 1016.6 330.329 1014.84 330.408 1013.07C329.661 1014.68 329.1 1016.38 328.738 1018.12C327.806 1021.42 326.602 1026.24 325.32 1032.22C322.679 1044.18 319.961 1060.88 317.553 1079.37C315.145 1097.85 313.125 1114.13 311.533 1126.71C310.756 1132.42 310.134 1137.2 309.63 1141.04C309.265 1142.79 309.109 1144.58 309.163 1146.36Z" fill="#263238"/>
<path d="M151.517 1113.39C153.583 1113.88 155.689 1114.18 157.809 1114.28C161.693 1114.75 167.752 1115.37 174.976 1116.34C189.424 1118.24 209.348 1121.55 231.098 1126.13C252.847 1130.71 272.422 1135.8 286.443 1139.84C293.473 1141.78 299.104 1143.53 303.027 1144.73C305.011 1145.48 307.068 1146.03 309.163 1146.36C307.284 1145.37 305.322 1144.54 303.299 1143.88C299.415 1142.44 293.9 1140.46 286.909 1138.29C272.966 1133.86 253.43 1128.58 231.564 1123.91C209.697 1119.25 189.734 1116.15 175.17 1114.75C167.907 1113.97 161.965 1113.58 157.887 1113.39C155.768 1113.19 153.636 1113.19 151.517 1113.39Z" fill="#263238"/>
<path d="M373.869 1321.64C374.338 1321.07 374.718 1320.43 374.995 1319.74L377.83 1314.15C380.316 1309.29 383.656 1302.18 387.695 1293.29C395.774 1275.58 406.144 1250.76 417.213 1223.38C428.282 1196 438.419 1170.95 446.148 1153.08C450.031 1144.38 452.983 1137.24 455.313 1131.95L457.76 1126.17C458.077 1125.51 458.324 1124.82 458.498 1124.11C458.027 1124.68 457.636 1125.3 457.333 1125.97C456.595 1127.49 455.624 1129.35 454.498 1131.57C452.051 1136.42 448.711 1143.57 444.672 1152.42C436.593 1170.13 426.223 1195.15 415.115 1222.53C404.007 1249.91 393.909 1274.96 386.219 1292.82L377.053 1313.88L374.607 1319.62C374.268 1320.26 374.02 1320.94 373.869 1321.64Z" fill="#263238"/>
<path d="M165.111 1249.71C165.75 1250.11 166.444 1250.41 167.169 1250.61L173.228 1252.78L195.599 1260.55C214.475 1267.11 240.419 1276.43 269.082 1286.8C297.745 1297.17 323.845 1306.22 342.876 1312.4C352.391 1315.51 360.12 1317.91 365.48 1319.47L371.655 1321.25C372.373 1321.49 373.116 1321.65 373.869 1321.72C373.227 1321.32 372.535 1321.01 371.81 1320.79L365.752 1318.65L343.381 1310.88C324.505 1304.36 298.561 1295.04 269.859 1284.67C241.157 1274.3 215.135 1265.25 196.065 1259.03C186.55 1255.97 178.821 1253.56 173.461 1251.97L167.286 1250.22C166.588 1249.95 165.856 1249.78 165.111 1249.71Z" fill="#263238"/>
<path d="M2156.92 1518.05C2156.92 1518.63 1721.38 1519.06 1184.2 1519.06C647.021 1519.06 211.406 1518.63 211.406 1518.05C211.406 1517.47 646.866 1517.04 1184.2 1517.04C1721.53 1517.04 2156.92 1517.51 2156.92 1518.05Z" fill="#263238"/>
<path d="M1798.16 349.665H475.976C470.556 349.665 465.189 350.733 460.182 352.808C455.176 354.884 450.627 357.925 446.796 361.76C442.966 365.594 439.928 370.145 437.858 375.154C435.787 380.163 434.724 385.531 434.729 390.951V1324.83C434.724 1330.25 435.787 1335.62 437.858 1340.62C439.928 1345.63 442.966 1350.18 446.796 1354.02C450.627 1357.85 455.176 1360.89 460.182 1362.97C465.189 1365.05 470.556 1366.11 475.976 1366.11H983.442C983.442 1366.11 1015.72 1465.93 915.63 1517.58H1390.12C1390.12 1517.58 1277.18 1478.75 1306.23 1366.11H1798.16C1809.11 1366.11 1819.61 1361.76 1827.36 1354.02C1835.1 1346.28 1839.45 1335.78 1839.45 1324.83V390.951C1839.45 380.001 1835.1 369.5 1827.36 361.757C1819.61 354.015 1809.11 349.665 1798.16 349.665Z" fill="#263238"/>
<path d="M1156.12 1267.54C1174.1 1293.25 1145.94 1321.41 1120.23 1303.43C1119.37 1302.82 1118.62 1302.07 1118.02 1301.21C1100.08 1275.5 1128.19 1247.38 1153.91 1265.33C1154.76 1265.93 1155.51 1266.68 1156.12 1267.54Z" fill="#455A64"/>
<path d="M1795.52 396.854H478.617C471.603 396.854 465.917 402.54 465.917 409.554V1180.35C465.917 1187.36 471.603 1193.05 478.617 1193.05H1795.52C1802.54 1193.05 1808.22 1187.36 1808.22 1180.35V409.554C1808.22 402.54 1802.54 396.854 1795.52 396.854Z" fill="#E0E0E0"/>
<path d="M1808.22 455.19H465.917V1193.05H1808.22V455.19Z" fill="#FAFAFA"/>
<path d="M576.024 427.575C576.024 429.696 575.396 431.768 574.218 433.531C573.04 435.294 571.366 436.668 569.407 437.479C567.448 438.29 565.293 438.503 563.214 438.089C561.134 437.675 559.224 436.654 557.725 435.155C556.226 433.656 555.205 431.746 554.791 429.667C554.378 427.587 554.59 425.432 555.401 423.473C556.213 421.515 557.587 419.84 559.349 418.663C561.112 417.485 563.185 416.856 565.305 416.856C568.148 416.856 570.874 417.985 572.885 419.996C574.895 422.006 576.024 424.732 576.024 427.575Z" fill="#FF725E"/>
<path d="M511.047 427.575C511.047 429.696 510.418 431.768 509.24 433.531C508.062 435.294 506.388 436.668 504.43 437.479C502.471 438.29 500.316 438.503 498.236 438.089C496.157 437.675 494.247 436.654 492.748 435.155C491.248 433.656 490.228 431.746 489.814 429.667C489.4 427.587 489.613 425.432 490.424 423.473C491.235 421.515 492.609 419.84 494.372 418.663C496.135 417.485 498.207 416.856 500.327 416.856C503.17 416.856 505.897 417.985 507.907 419.996C509.918 422.006 511.047 424.732 511.047 427.575Z" fill="#FF725E"/>
<path d="M542.234 427.575C542.234 429.696 541.606 431.768 540.428 433.531C539.25 435.294 537.576 436.668 535.617 437.479C533.658 438.29 531.503 438.503 529.424 438.089C527.344 437.675 525.434 436.654 523.935 435.155C522.436 433.656 521.415 431.746 521.001 429.667C520.588 427.587 520.8 425.432 521.611 423.473C522.423 421.515 523.797 419.84 525.559 418.663C527.322 417.485 529.395 416.856 531.515 416.856C534.358 416.856 537.084 417.985 539.095 419.996C541.105 422.006 542.234 424.732 542.234 427.575Z" fill="#FF725E"/>
<path d="M1127.3 798.757C1127.3 799.34 1078.13 799.845 1017.5 799.845C956.877 799.845 907.668 799.34 907.668 798.757C907.668 798.175 956.838 797.67 1017.5 797.67C1078.17 797.67 1127.3 798.136 1127.3 798.757Z" fill="#455A64"/>
<path d="M1127.3 828.158C1127.3 828.741 1078.13 829.246 1017.5 829.246C956.877 829.246 907.668 828.741 907.668 828.158C907.668 827.576 956.838 827.032 1017.5 827.032C1078.17 827.032 1127.3 827.537 1127.3 828.158Z" fill="#455A64"/>
<path d="M1039.29 857.52C1039.29 858.142 1009.85 858.646 973.5 858.646C937.147 858.646 907.668 858.142 907.668 857.52C907.668 856.899 937.147 856.433 973.5 856.433C1009.85 856.433 1039.29 856.938 1039.29 857.52Z" fill="#455A64"/>
<path d="M1012.11 498.378H907.668V511.622H1012.11V498.378Z" fill="#455A64"/>
<path d="M1137.17 541.062H907.668V763.103H1137.17V541.062Z" fill="#E0E0E0"/>
<path d="M925.456 744.072L988.957 629.809L1040.88 702.864L1072.42 664.064L1119.38 744.072H925.456Z" fill="#FF725E"/>
<path d="M1046.48 624.099C1055.59 624.099 1062.98 616.709 1062.98 607.593C1062.98 598.477 1055.59 591.086 1046.48 591.086C1037.36 591.086 1029.97 598.477 1029.97 607.593C1029.97 616.709 1037.36 624.099 1046.48 624.099Z" fill="#FF725E"/>
<path d="M1119.38 744.694C1119.34 744.397 1119.34 744.097 1119.38 743.8C1119.38 743.101 1119.38 742.286 1119.38 741.198C1119.38 738.829 1119.38 735.489 1119.38 731.217C1119.38 722.4 1119.38 709.661 1119.14 693.504C1119.14 661.074 1118.87 614.895 1118.68 559.433L1119.61 560.365H925.728C925.456 560.598 927.747 558.307 926.777 559.316V609.108C926.777 625.42 926.777 641.421 926.777 656.957C926.777 688.028 926.777 717.468 926.777 744.499L925.806 743.528L1066.01 744.033L1105.55 744.266H1116.04H1118.76H1116.15H1105.82L1066.52 744.499L925.689 745.004H924.757V744.033C924.757 716.846 924.757 687.601 924.757 656.491C924.757 640.955 924.757 624.954 924.757 608.642V559.511C923.786 560.443 926.077 558.112 925.883 558.384H1119.77H1120.7V559.316C1120.5 615.011 1120.35 661.385 1120.23 693.97C1120.23 710.05 1120.04 722.711 1119.96 731.488C1119.96 735.683 1119.96 738.946 1119.96 741.276C1119.96 742.325 1119.96 743.14 1119.96 743.762C1119.79 744.088 1119.6 744.4 1119.38 744.694Z" fill="#455A64"/>
<path d="M1407.1 798.757C1407.1 799.34 1357.93 799.845 1297.26 799.845C1236.59 799.845 1187.46 799.34 1187.46 798.757C1187.46 798.175 1236.59 797.67 1297.26 797.67C1357.93 797.67 1407.1 798.136 1407.1 798.757Z" fill="#455A64"/>
<path d="M1407.1 828.158C1407.1 828.741 1357.93 829.246 1297.26 829.246C1236.59 829.246 1187.46 828.741 1187.46 828.158C1187.46 827.576 1236.59 827.032 1297.26 827.032C1357.93 827.032 1407.1 827.537 1407.1 828.158Z" fill="#455A64"/>
<path d="M1319.09 857.52C1319.09 858.142 1289.61 858.646 1253.26 858.646C1216.9 858.646 1187.54 858.142 1187.54 857.52C1187.54 856.899 1216.98 856.433 1253.33 856.433C1289.69 856.433 1319.09 856.938 1319.09 857.52Z" fill="#455A64"/>
<path d="M1291.9 498.378H1187.46V511.622H1291.9V498.378Z" fill="#455A64"/>
<path d="M1416.96 541.062H1187.46V763.103H1416.96V541.062Z" fill="#E0E0E0"/>
<path d="M1205.25 744.072L1268.71 629.809L1320.64 702.864L1352.22 664.064L1399.13 744.072H1205.25Z" fill="#FF725E"/>
<path d="M1342.89 607.593C1342.9 610.869 1341.94 614.073 1340.12 616.8C1338.31 619.526 1335.72 621.653 1332.7 622.91C1329.67 624.167 1326.34 624.498 1323.13 623.861C1319.92 623.224 1316.97 621.647 1314.65 619.331C1312.33 617.015 1310.76 614.063 1310.12 610.85C1309.48 607.637 1309.81 604.307 1311.07 601.282C1312.33 598.257 1314.45 595.674 1317.18 593.859C1319.91 592.044 1323.11 591.079 1326.39 591.086C1330.77 591.086 1334.96 592.826 1338.06 595.921C1341.16 599.017 1342.89 603.215 1342.89 607.593Z" fill="#FF725E"/>
<path d="M1399.13 744.694C1399.13 744.694 1399.13 744.383 1399.13 743.8C1399.13 743.218 1399.13 742.286 1399.13 741.198C1399.13 738.829 1399.13 735.489 1399.13 731.217C1399.13 722.4 1399.13 709.661 1398.9 693.504C1398.9 661.074 1398.59 614.895 1398.4 559.433L1399.33 560.365H1205.44C1205.17 560.598 1207.5 558.307 1206.53 559.316V609.108C1206.53 625.42 1206.53 641.421 1206.53 656.957C1206.53 688.028 1206.53 717.468 1206.53 744.499L1205.6 743.528L1345.81 744.033L1385.35 744.266H1395.83H1398.55H1395.91H1385.62L1346.27 744.499L1205.48 745.004H1204.51V744.033C1204.51 716.846 1204.51 687.601 1204.51 656.491V559.511C1203.5 560.443 1205.83 558.112 1205.6 558.384H1399.48H1400.45V559.316C1400.22 615.011 1400.07 661.385 1399.95 693.97C1399.95 710.05 1399.75 722.711 1399.72 731.488C1399.72 735.683 1399.72 738.946 1399.72 741.276C1399.72 742.325 1399.72 743.14 1399.72 743.762C1399.58 744.103 1399.38 744.418 1399.13 744.694Z" fill="#455A64"/>
<path d="M1019.45 898.495H915.009V911.739H1019.45V898.495Z" fill="#455A64"/>
<path d="M1144.51 941.14H915.009V1163.18H1144.51V941.14Z" fill="#E0E0E0"/>
<path d="M932.797 1144.19L996.298 1029.93L1048.23 1102.94L1079.76 1064.18L1126.72 1144.19H932.797Z" fill="#FF725E"/>
<path d="M1070.36 1007.71C1070.36 1010.98 1069.39 1014.18 1067.58 1016.9C1065.76 1019.62 1063.17 1021.74 1060.15 1023C1057.13 1024.25 1053.8 1024.58 1050.59 1023.94C1047.38 1023.3 1044.43 1021.72 1042.12 1019.41C1039.81 1017.09 1038.23 1014.15 1037.59 1010.94C1036.95 1007.73 1037.28 1004.4 1038.53 1001.38C1039.78 998.355 1041.91 995.77 1044.63 993.952C1047.35 992.134 1050.55 991.164 1053.82 991.164C1055.99 991.159 1058.15 991.583 1060.16 992.413C1062.17 993.243 1063.99 994.461 1065.53 995.999C1067.07 997.536 1068.28 999.362 1069.11 1001.37C1069.94 1003.38 1070.37 1005.54 1070.36 1007.71Z" fill="#FF725E"/>
<path d="M1126.72 1144.81C1126.72 1144.81 1126.72 1144.46 1126.72 1143.88C1126.72 1143.3 1126.72 1142.36 1126.72 1141.28C1126.72 1138.95 1126.72 1135.61 1126.72 1131.29C1126.72 1122.52 1126.72 1109.78 1126.45 1093.58C1126.45 1061.15 1126.17 1014.97 1125.98 959.549L1126.91 960.482H933.03L934.117 959.394V972.094C934.117 976.289 934.117 980.483 934.117 984.639V1057.23C934.117 1088.3 934.117 1117.7 934.117 1144.77L933.146 1143.8L1073.35 1144.31L1112.89 1144.54H1123.42H1126.14C1126.45 1144.51 1126.76 1144.51 1127.07 1144.54H1123.61H1113.32L1073.98 1144.81L933.146 1145.28H932.214V1144.34C932.214 1117.16 932.214 1087.87 932.214 1056.8C932.214 1041.27 932.214 1025.32 932.214 1008.95V959.549L933.341 958.423H1127.22H1128.16V959.394C1127.96 1015.09 1127.81 1061.46 1127.69 1094.05C1127.69 1110.13 1127.69 1122.79 1127.46 1131.53C1127.46 1135.76 1127.46 1139.02 1127.46 1141.35C1127.46 1142.36 1127.46 1143.18 1127.46 1143.84C1127.29 1144.22 1127.04 1144.55 1126.72 1144.81Z" fill="#455A64"/>
<path d="M1299.43 898.495H1195V911.739H1299.43V898.495Z" fill="#455A64"/>
<path d="M1424.5 941.14H1195V1163.18H1424.5V941.14Z" fill="#E0E0E0"/>
<path d="M1212.79 1144.19L1276.29 1029.93L1328.21 1102.94L1359.75 1064.18L1406.71 1144.19H1212.79Z" fill="#FF725E"/>
<path d="M1350.31 1007.71C1350.31 1010.97 1349.33 1014.16 1347.51 1016.87C1345.69 1019.58 1343.11 1021.69 1340.1 1022.93C1337.08 1024.17 1333.76 1024.5 1330.56 1023.86C1327.36 1023.21 1324.43 1021.64 1322.12 1019.33C1319.82 1017.02 1318.25 1014.08 1317.61 1010.88C1316.98 1007.68 1317.31 1004.36 1318.56 1001.34C1319.81 998.331 1321.93 995.755 1324.64 993.943C1327.35 992.131 1330.54 991.164 1333.81 991.164C1335.98 991.164 1338.13 991.592 1340.13 992.424C1342.14 993.256 1343.96 994.476 1345.49 996.012C1347.03 997.549 1348.24 999.374 1349.07 1001.38C1349.89 1003.39 1350.32 1005.54 1350.31 1007.71Z" fill="#FF725E"/>
<path d="M1406.71 1144.81C1406.68 1144.5 1406.68 1144.19 1406.71 1143.88C1406.71 1143.22 1406.71 1142.36 1406.71 1141.28C1406.71 1138.95 1406.71 1135.61 1406.71 1131.29C1406.71 1122.52 1406.71 1109.78 1406.47 1093.58C1406.47 1061.15 1406.2 1014.97 1406.01 959.549L1406.94 960.482H1213.02L1214.11 959.394V1009.26C1214.11 1025.58 1214.11 1041.53 1214.11 1057.11C1214.11 1088.18 1214.11 1117.58 1214.11 1144.65L1213.13 1143.68L1353.34 1144.19L1392.88 1144.42H1403.37H1406.09H1407.06H1403.6H1393.27L1353.96 1144.69L1213.13 1145.16H1212.16V1144.23C1212.16 1117.04 1212.16 1087.76 1212.16 1056.69C1212.16 1041.15 1212.16 1025.2 1212.16 1008.84V959.549L1213.25 958.423H1407.17H1408.1V959.394C1407.91 1015.09 1407.76 1061.46 1407.64 1094.05C1407.64 1110.13 1407.44 1122.79 1407.37 1131.53C1407.37 1135.76 1407.37 1139.02 1407.37 1141.35C1407.37 1142.36 1407.37 1143.18 1407.37 1143.84C1407.18 1144.18 1406.96 1144.51 1406.71 1144.81Z" fill="#455A64"/>
<path d="M1588.32 898.495H1483.88V911.739H1588.32V898.495Z" fill="#455A64"/>
<path d="M1713.38 941.14H1483.88V1163.18H1713.38V941.14Z" fill="#E0E0E0"/>
<path d="M1501.67 1144.19L1565.17 1029.93L1617.1 1102.94L1648.63 1064.18L1695.59 1144.19H1501.67Z" fill="#FF725E"/>
<path d="M1639.23 1007.71C1639.23 1010.98 1638.26 1014.18 1636.45 1016.9C1634.63 1019.62 1632.04 1021.74 1629.02 1023C1626 1024.25 1622.67 1024.58 1619.46 1023.94C1616.25 1023.3 1613.3 1021.72 1610.99 1019.41C1608.68 1017.09 1607.1 1014.15 1606.46 1010.94C1605.82 1007.73 1606.15 1004.4 1607.4 1001.38C1608.66 998.355 1610.78 995.77 1613.5 993.952C1616.22 992.134 1619.42 991.164 1622.69 991.164C1624.86 991.159 1627.02 991.583 1629.03 992.413C1631.04 993.243 1632.86 994.461 1634.4 995.999C1635.94 997.536 1637.16 999.362 1637.99 1001.37C1638.81 1003.38 1639.24 1005.54 1639.23 1007.71Z" fill="#FF725E"/>
<path d="M1695.59 1144.81C1695.59 1144.81 1695.59 1144.46 1695.59 1143.88C1695.59 1143.3 1695.59 1142.36 1695.59 1141.28C1695.59 1138.95 1695.59 1135.61 1695.59 1131.29C1695.59 1122.52 1695.59 1109.78 1695.32 1093.58C1695.32 1061.15 1695.05 1014.97 1694.85 959.549L1695.78 960.482H1501.9L1502.99 959.394V1057.11C1502.99 1088.18 1502.99 1117.58 1502.99 1144.65L1502.02 1143.68L1642.22 1144.19L1681.76 1144.42H1692.29H1694.97C1695.29 1144.39 1695.62 1144.39 1695.94 1144.42H1692.48H1682.19L1642.85 1144.69L1502.02 1145.16H1501.08V1144.23C1501.08 1117.04 1501.08 1087.76 1501.08 1056.69C1501.08 1041.15 1501.08 1025.2 1501.08 1008.84V959.549L1502.21 958.423H1696.09H1697.03V959.394C1696.83 1015.09 1696.68 1061.46 1696.56 1094.05C1696.56 1110.13 1696.37 1122.79 1696.33 1131.53C1696.33 1135.76 1696.33 1139.02 1696.33 1141.35C1696.33 1142.36 1696.33 1143.18 1696.33 1143.84C1696.16 1144.22 1695.91 1144.55 1695.59 1144.81Z" fill="#455A64"/>
<path d="M1691.9 763.064C1700.24 761.991 1708.66 761.627 1717.07 761.977L1715.98 763.064V760.579C1715.98 759.724 1715.98 758.909 1715.98 758.093C1715.98 756.462 1715.98 754.908 1715.98 753.355C1715.98 750.597 1715.98 747.917 1716.21 745.354C1716.09 742.869 1716.36 740.381 1716.99 737.975C1717.57 740.389 1717.82 742.872 1717.73 745.354C1717.73 747.917 1717.73 750.597 1717.96 753.355C1717.96 754.908 1717.96 756.462 1717.96 758.093V763.064L1716.83 764.191C1708.51 764.55 1700.16 764.173 1691.9 763.064Z" fill="#455A64"/>
<path d="M1577.44 763.064C1596.5 761.614 1615.63 761.614 1634.69 763.064C1615.64 764.566 1596.5 764.566 1577.44 763.064Z" fill="#455A64"/>
<path d="M1495.03 737.897C1496.12 746.238 1496.49 754.66 1496.11 763.064L1495.03 761.977H1504.85L1512.85 762.21C1515.34 762.145 1517.82 762.406 1520.23 762.987C1517.83 763.615 1515.34 763.877 1512.85 763.764L1504.85 763.997H1500.11H1495.03L1493.94 762.87C1493.6 754.53 1493.96 746.176 1495.03 737.897Z" fill="#455A64"/>
<path d="M1495.03 623.439C1496.12 632.938 1496.49 642.508 1496.11 652.063C1496.49 661.606 1496.12 671.162 1495.03 680.649C1493.95 671.161 1493.59 661.606 1493.94 652.063C1493.59 642.508 1493.95 632.94 1495.03 623.439Z" fill="#455A64"/>
<path d="M1520.23 540.985C1511.88 542.081 1503.44 542.444 1495.03 542.072L1496.11 540.985V545.995C1496.11 547.587 1496.11 549.18 1496.11 550.733C1496.11 553.491 1496.11 556.132 1495.88 558.734C1495.99 561.219 1495.73 563.707 1495.1 566.113C1494.48 563.707 1494.21 561.219 1494.33 558.734C1494.33 556.132 1494.33 553.491 1494.09 550.733C1494.09 549.18 1494.09 547.587 1494.09 545.995C1494.09 545.179 1494.09 544.325 1494.09 543.47V540.985L1495.18 539.897C1503.55 539.557 1511.93 539.921 1520.23 540.985Z" fill="#455A64"/>
<path d="M1634.69 540.985C1615.63 542.435 1596.5 542.435 1577.44 540.985C1596.5 539.534 1615.63 539.534 1634.69 540.985Z" fill="#455A64"/>
<path d="M1717.11 566.23C1715.98 557.878 1715.61 549.442 1715.98 541.023C1718.19 543.198 1716.6 541.645 1717.07 542.111H1711.86H1707.12L1699.12 541.878C1696.64 541.991 1694.15 541.73 1691.74 541.101C1694.15 540.473 1696.64 540.211 1699.12 540.324L1707.12 540.091H1716.91L1718.04 541.179C1718.43 549.54 1718.12 557.92 1717.11 566.23Z" fill="#455A64"/>
<path d="M1717.11 680.804C1715.98 671.32 1715.61 661.762 1715.98 652.219C1715.61 642.662 1715.98 633.092 1717.11 623.594C1718.18 633.096 1718.54 642.663 1718.19 652.219C1718.54 661.761 1718.18 671.316 1717.11 680.804Z" fill="#455A64"/>
<path d="M1713.88 798.446C1713.88 799.029 1664.67 799.534 1604.05 799.534C1543.42 799.534 1494.21 799.029 1494.21 798.446C1494.21 797.864 1543.38 797.359 1604.05 797.359C1664.71 797.359 1713.88 797.825 1713.88 798.446Z" fill="#455A64"/>
<path d="M1713.88 827.847C1713.88 828.43 1664.67 828.935 1604.05 828.935C1543.42 828.935 1494.37 828.391 1494.37 827.847C1494.37 827.303 1543.54 826.721 1604.2 826.721C1664.87 826.721 1713.88 827.226 1713.88 827.847Z" fill="#455A64"/>
<path d="M1598.65 498.068H1494.21V511.312H1598.65V498.068Z" fill="#455A64"/>
<path d="M800.9 670.861C800.9 693.138 794.295 714.914 781.918 733.436C769.542 751.959 751.951 766.395 731.371 774.92C710.79 783.445 688.143 785.675 666.295 781.329C644.446 776.983 624.377 766.256 608.625 750.504C592.873 734.752 582.146 714.683 577.8 692.835C573.454 670.986 575.685 648.34 584.209 627.759C592.734 607.178 607.171 589.587 625.693 577.211C644.215 564.835 665.991 558.229 688.268 558.229C718.14 558.229 746.788 570.096 767.911 591.218C789.034 612.341 800.9 640.989 800.9 670.861Z" fill="#E0E0E0"/>
<path d="M823.155 916.167C823.155 916.749 765.363 917.254 694.094 917.254C622.825 917.254 564.994 916.749 564.994 916.167C564.994 915.584 622.786 915.04 694.094 915.04C765.402 915.04 823.155 915.545 823.155 916.167Z" fill="#455A64"/>
<path d="M823.155 944.907C823.155 945.529 765.363 945.995 694.094 945.995C622.825 945.995 564.994 945.529 564.994 944.907C564.994 944.286 622.786 943.82 694.094 943.82C765.402 943.82 823.155 944.092 823.155 944.907Z" fill="#455A64"/>
<path d="M823.155 973.259C823.155 973.881 765.363 974.347 694.094 974.347C622.825 974.347 564.994 973.881 564.994 973.259C564.994 972.638 622.786 972.094 694.288 972.094C765.79 972.094 823.155 972.677 823.155 973.259Z" fill="#455A64"/>
<path d="M713.319 1002.43C713.319 1003.05 679.801 1003.51 638.477 1003.51C597.152 1003.51 563.596 1003.05 563.596 1002.43C563.596 1001.81 597.114 1001.34 638.477 1001.34C679.84 1001.34 713.319 1001.84 713.319 1002.43Z" fill="#455A64"/>
<path d="M564.994 870.881H742.875V857.87H564.994V870.881Z" fill="#455A64"/>
<path d="M617.815 756.811C637.638 773.974 662.98 783.421 689.201 783.421C715.421 783.421 740.763 773.974 760.586 756.811C754.605 736.46 740.079 712.302 704.775 706.942C712.69 703.454 719.408 697.72 724.096 690.45C728.783 683.18 731.235 674.695 731.146 666.045C731.146 641.577 712.737 621.691 689.822 621.575C666.907 621.458 648.264 641.227 648.148 665.657C647.987 674.386 650.412 682.968 655.119 690.322C659.825 697.676 666.603 703.472 674.597 706.981C638.71 712.302 623.913 736.576 617.815 756.811Z" fill="#FF725E"/>
<path d="M664.732 1047.01H564.994V1059.17H664.732V1047.01Z" fill="#FF725E"/>
<path d="M2058.07 625.109L2075.08 682.163C2075.99 684.725 2076.5 687.41 2076.6 690.125C2076.6 698.165 2068.83 704.495 2061.06 705.971C2053.04 706.839 2044.93 705.884 2037.33 703.175C2035.23 711.37 2025.68 714.827 2017.33 716.38C1980.13 723.3 1941.7 718.51 1907.34 702.67C1922 681.672 1933.92 658.882 1942.8 634.858L2029.56 638.742C2034.67 639.295 2039.84 638.86 2044.79 637.46C2047.25 636.714 2049.44 635.285 2051.12 633.339C2052.8 631.393 2053.89 629.01 2054.26 626.468" fill="#FF725E"/>
<path d="M1958.64 736.538C1959.73 730.168 1957.13 703.369 1957.13 703.369C1957.13 703.369 1932.7 700.767 1931.22 676.532C1929.75 652.296 1931.22 596.369 1931.22 596.369L1975.73 574.619L2024.75 611.71L2017.33 732.925L1964.31 780.231L1958.64 736.538Z" fill="#FFBE9D"/>
<path d="M1936.08 637.11C1936.07 637.727 1936.25 638.331 1936.58 638.847C1936.92 639.363 1937.4 639.767 1937.97 640.009C1938.54 640.25 1939.16 640.317 1939.77 640.201C1940.37 640.086 1940.93 639.793 1941.37 639.36C1941.81 638.927 1942.11 638.374 1942.23 637.77C1942.35 637.166 1942.29 636.539 1942.06 635.969C1941.83 635.399 1941.43 634.912 1940.92 634.569C1940.4 634.226 1939.8 634.042 1939.19 634.042C1938.78 634.037 1938.38 634.113 1938 634.265C1937.62 634.416 1937.28 634.642 1936.99 634.927C1936.7 635.212 1936.47 635.552 1936.32 635.927C1936.16 636.302 1936.08 636.704 1936.08 637.11Z" fill="#263238"/>
<path d="M1933.24 633.731C1933.67 634.159 1935.96 632.217 1939.3 632.023C1942.64 631.828 1945.13 633.46 1945.48 632.994C1945.83 632.527 1945.24 632.061 1944.16 631.323C1942.68 630.348 1940.92 629.884 1939.15 630.003C1937.39 630.091 1935.71 630.761 1934.37 631.906C1933.24 632.799 1932.85 633.576 1933.24 633.731Z" fill="#263238"/>
<path d="M1972.08 637.11C1972.07 637.728 1972.25 638.334 1972.59 638.851C1972.93 639.368 1973.41 639.772 1973.98 640.012C1974.55 640.252 1975.18 640.317 1975.79 640.198C1976.39 640.08 1976.95 639.783 1977.39 639.346C1977.82 638.909 1978.12 638.352 1978.24 637.746C1978.36 637.139 1978.29 636.512 1978.05 635.942C1977.81 635.373 1977.41 634.888 1976.89 634.55C1976.37 634.211 1975.77 634.035 1975.15 634.042C1974.34 634.042 1973.56 634.365 1972.98 634.941C1972.41 635.516 1972.08 636.297 1972.08 637.11Z" fill="#263238"/>
<path d="M1970.1 633.731C1970.49 634.159 1972.78 632.217 1976.12 632.022C1979.46 631.828 1981.99 633.459 1982.33 632.993C1982.68 632.527 1982.1 632.061 1980.98 631.323C1979.5 630.362 1977.76 629.899 1976 630.004C1974.25 630.109 1972.57 630.776 1971.23 631.906C1970.22 632.799 1969.91 633.576 1970.1 633.731Z" fill="#263238"/>
<path d="M1969.09 665.268C1963.99 667.872 1958.55 669.754 1952.93 670.861C1954.17 672.533 1955.93 673.747 1957.93 674.316C1959.94 674.885 1962.07 674.776 1964 674.007C1964.93 673.792 1965.79 673.391 1966.56 672.828C1967.32 672.265 1967.96 671.553 1968.43 670.735C1968.91 669.917 1969.21 669.01 1969.33 668.07C1969.44 667.13 1969.36 666.176 1969.09 665.268Z" fill="#FAFAFA"/>
<path d="M1957.13 703.369C1968.65 702.893 1979.79 699.134 1989.25 692.533C1989.25 692.533 1981.99 710.321 1957.67 709.311L1957.13 703.369Z" fill="#EB996E"/>
<path d="M2095.28 681.425C2092.23 681.541 2089.2 680.858 2086.5 679.445C2082.51 677.274 2079.19 674.05 2076.91 670.123C2074.08 665.231 2071.68 660.097 2069.76 654.782C2065.22 643.519 2061.99 633.032 2059.47 625.42C2059.12 624.216 2058.77 623.128 2058.46 622.08C2058.31 620.956 2058.11 619.841 2057.84 618.74C2044.59 568.249 2000.16 558.773 1991.38 558.773C1981.95 558.773 1965.44 553.568 1941.4 578.58C1937.76 582.308 1934.69 586.548 1932.27 591.164C1926.97 597.835 1923.31 605.657 1921.59 614.001C1920.54 617.914 1920.35 622.01 1921.05 626.002C1921.51 626.002 1921.59 621.458 1923.46 614.351C1924.57 610.219 1926.13 606.221 1928.12 602.427C1926.02 611.765 1926.88 621.521 1930.56 630.352L1939.19 627.944L1970.26 617.458C1967.42 607.904 1971.58 596.019 1973.91 590.271H1974.14C1981.21 626.546 2021.17 630.352 2021.17 630.352L2019.19 699.213C2060.25 690.436 2060.79 645.616 2060.52 634.469C2062.38 640.761 2064.79 647.985 2067.82 655.559C2069.85 660.957 2072.37 666.158 2075.35 671.094C2077.87 675.283 2081.58 678.634 2086 680.726C2088.97 682.137 2092.3 682.624 2095.55 682.124C2096.75 682.013 2097.91 681.584 2098.89 680.882C2097.68 680.984 2096.47 681.166 2095.28 681.425Z" fill="#FF725E"/>
<path d="M1958.06 661.967C1956.29 661.561 1954.48 661.365 1952.66 661.385C1951.81 661.385 1950.95 661.385 1950.8 660.608C1950.68 659.675 1950.84 658.728 1951.26 657.889C1952 655.714 1952.74 653.423 1953.56 650.976C1955.15 646.043 1956.51 641.577 1957.44 638.314C1958.08 636.591 1958.49 634.788 1958.64 632.955C1957.73 634.569 1957.03 636.291 1956.55 638.081C1955.38 641.266 1953.87 645.849 1952.27 650.665L1950.06 657.617C1949.58 658.717 1949.47 659.945 1949.75 661.113C1949.89 661.406 1950.09 661.666 1950.33 661.874C1950.58 662.082 1950.87 662.233 1951.19 662.317C1951.66 662.37 1952.15 662.37 1952.62 662.317C1954.44 662.419 1956.27 662.302 1958.06 661.967Z" fill="#263238"/>
<path d="M2014.42 642.237C2006.88 640.761 2000.51 639.713 1998.34 639.557C1998.62 638.282 1998.78 636.981 1998.8 635.673C1998.77 631.477 1997.41 627.4 1994.92 624.022C1992.63 620.876 1989.43 618.504 1985.75 617.225C1982.45 616.052 1978.9 615.784 1975.46 616.448C1972.46 617.053 1969.66 618.387 1967.3 620.332C1963.84 623.013 1961.41 626.816 1960.43 631.09C1960.16 632.236 1960.01 633.408 1960 634.586C1959.94 634.985 1959.94 635.391 1960 635.79C1960 635.79 1960 634.12 1960.86 631.246C1961.98 627.175 1964.43 623.595 1967.81 621.07C1970.1 619.345 1972.76 618.187 1975.58 617.691C1979.19 617.036 1982.92 617.478 1986.29 618.961C1989.65 620.444 1992.49 622.9 1994.45 626.013C1996.4 629.125 1997.38 632.752 1997.26 636.426C1997.14 640.1 1995.91 643.652 1993.75 646.626C1991.62 649.586 1988.64 651.833 1985.21 653.073C1982.13 654.211 1978.81 654.506 1975.58 653.928C1972.75 653.419 1970.09 652.247 1967.81 650.51C1964.42 648.005 1961.97 644.435 1960.86 640.373C1960.54 639.229 1960.32 638.059 1960.2 636.877C1960.78 636.877 1961.17 636.567 1961.17 636.411C1961.17 636.256 1960.7 636.023 1960.04 635.906C1959.27 635.837 1958.49 635.837 1957.71 635.906C1956.77 635.901 1955.83 636.005 1954.92 636.217V635.984C1954.9 631.785 1953.54 627.702 1951.03 624.333C1948.75 621.196 1945.56 618.826 1941.9 617.536C1938.59 616.363 1935.02 616.095 1931.57 616.759C1927.95 617.492 1924.61 619.245 1921.95 621.811C1919.28 624.377 1917.41 627.651 1916.54 631.246C1916.27 632.391 1916.12 633.564 1916.12 634.741C1916.05 635.14 1916.05 635.546 1916.12 635.945C1916.12 635.945 1916.12 634.275 1916.97 631.401C1918.09 627.331 1920.54 623.75 1923.92 621.225C1926.21 619.5 1928.87 618.342 1931.69 617.846C1934.34 617.363 1937.07 617.468 1939.68 618.154C1942.28 618.84 1944.71 620.091 1946.78 621.817C1948.85 623.543 1950.52 625.704 1951.66 628.145C1952.8 630.586 1953.4 633.249 1953.4 635.945C1953.4 639.71 1952.24 643.385 1950.09 646.474C1947.94 649.564 1944.89 651.921 1941.36 653.228C1938.27 654.366 1934.93 654.661 1931.69 654.083C1928.87 653.574 1926.2 652.403 1923.92 650.665C1920.53 648.161 1918.09 644.591 1916.97 640.528C1916.19 637.654 1916.27 635.945 1916.12 635.945C1916.06 636.357 1916.06 636.776 1916.12 637.188C1916.12 638.353 1916.27 639.513 1916.54 640.645C1917.51 644.932 1919.94 648.749 1923.42 651.442C1925.79 653.36 1928.59 654.69 1931.57 655.326C1935.02 655.99 1938.59 655.722 1941.9 654.549C1945.56 653.246 1948.74 650.878 1951.03 647.752C1953.35 644.65 1954.7 640.936 1954.92 637.072C1955.85 637.304 1956.82 637.409 1957.79 637.382C1958.54 637.431 1959.29 637.431 1960.04 637.382C1960.05 638.547 1960.19 639.707 1960.47 640.839C1961.31 644.452 1963.17 647.746 1965.84 650.323C1968.5 652.9 1971.86 654.651 1975.5 655.365C1978.94 656.029 1982.49 655.761 1985.79 654.588C1989.46 653.291 1992.65 650.923 1994.96 647.791C1996.56 645.619 1997.67 643.129 1998.22 640.489C2000.28 641.15 2006.57 642.626 2014.18 644.101C2019.75 645.413 2025.41 646.308 2031.12 646.781C2025.69 644.801 2020.1 643.281 2014.42 642.237Z" fill="#263238"/>
<path d="M2027.31 660.957C2026.93 656.921 2027.37 652.85 2028.63 648.995C2029.27 647.075 2030.42 645.363 2031.95 644.037C2033.48 642.712 2035.34 641.822 2037.33 641.46C2039.64 641.345 2041.9 642.068 2043.72 643.496C2045.53 644.924 2046.77 646.96 2047.2 649.228C2047.48 651.55 2047.05 653.903 2045.98 655.981C2044.91 658.059 2043.23 659.766 2041.18 660.88C2039.1 661.953 2036.81 662.545 2034.48 662.612C2032.15 662.679 2029.83 662.22 2027.7 661.268" fill="#FFBE9D"/>
<path d="M2034.22 657.501C2034.22 657.229 2035.54 657.811 2037.25 657.501C2038.32 657.127 2039.24 656.427 2039.89 655.5C2040.54 654.573 2040.88 653.466 2040.86 652.335C2040.97 651.768 2040.95 651.185 2040.8 650.627C2040.65 650.069 2040.38 649.552 2040.01 649.112C2039.27 648.514 2038.32 648.235 2037.37 648.335C2035.54 648.335 2034.26 648.956 2034.18 648.645C2034.11 648.335 2035 647.519 2037.17 646.937C2037.84 646.77 2038.53 646.754 2039.2 646.888C2039.88 647.022 2040.51 647.304 2041.06 647.713C2041.7 648.318 2042.18 649.068 2042.47 649.899C2042.76 650.73 2042.85 651.619 2042.73 652.491C2042.67 654.153 2042.04 655.745 2040.94 656.996C2040.03 658.051 2038.75 658.729 2037.37 658.899C2035.27 658.86 2034.22 657.501 2034.22 657.501Z" fill="#EB996E"/>
<path d="M2128.29 1580.43L2099.05 1560.58L2135.9 1505.58L2178.98 1534.17L2176.92 1537.7C2167.6 1553.47 2128.41 1617.09 2118.66 1625.21C2107.55 1634.22 2128.29 1580.43 2128.29 1580.43Z" fill="#FF725E"/>
<path d="M2115.01 1624.58C2114.46 1624.24 2127.94 1603.46 2145.11 1578.21C2162.27 1552.97 2176.57 1532.73 2177.11 1533.08C2177.65 1533.43 2164.14 1554.21 2146.97 1579.69C2129.81 1605.17 2115.51 1625.01 2115.01 1624.58Z" fill="#263238"/>
<path d="M2133.61 1585.44C2133.61 1586.06 2131.79 1586.41 2129.73 1586.56C2127.67 1586.72 2125.84 1586.56 2125.65 1585.94C2125.46 1585.32 2127.24 1584.43 2129.53 1584.31C2131.83 1584.19 2133.69 1584.81 2133.61 1585.44Z" fill="#263238"/>
<path d="M2133.18 1590.25C2133.18 1590.87 2131.05 1590.95 2128.68 1590.8C2126.31 1590.64 2124.33 1590.33 2124.29 1589.67C2124.25 1589.01 2126.27 1588.39 2128.8 1588.54C2131.32 1588.7 2133.3 1589.63 2133.18 1590.25Z" fill="#263238"/>
<path d="M2165.69 1549.55C2165.42 1549.55 2164.68 1548.5 2163.79 1546.52C2162.58 1543.86 2161.88 1541 2161.73 1538.09C2161.58 1535.07 2162.46 1532.08 2164.22 1529.62C2165.65 1527.76 2167.05 1527.25 2167.21 1527.49C2167.36 1527.72 2166.47 1528.69 2165.54 1530.48C2164.41 1532.82 2163.87 1535.41 2163.98 1538.01C2164.17 1540.72 2164.61 1543.4 2165.3 1546.01C2165.81 1548.07 2166 1549.43 2165.69 1549.55Z" fill="#263238"/>
<path d="M2128.02 1581.86C2127.75 1581.32 2128.8 1580.23 2130.23 1579.18C2131.67 1578.13 2132.99 1577.43 2133.46 1577.86C2133.92 1578.29 2133.19 1579.8 2131.55 1581.01C2129.92 1582.21 2128.25 1582.44 2128.02 1581.86Z" fill="#263238"/>
<path d="M2125.77 1579.1C2125.26 1578.72 2125.77 1576.97 2127.09 1575.22C2128.41 1573.47 2129.77 1572.31 2130.27 1572.62C2130.78 1572.93 2130.27 1574.68 2128.95 1576.5C2127.63 1578.33 2126.23 1579.49 2125.77 1579.1Z" fill="#263238"/>
<path d="M1783.6 1625.63V1590.29L1849.62 1589.86L1850.17 1641.6L1846.05 1641.87C1827.8 1642.99 1753.15 1646.33 1740.88 1642.72C1727.4 1638.68 1783.6 1625.63 1783.6 1625.63Z" fill="#FF725E"/>
<path d="M1739.52 1639.46C1739.52 1638.84 1764.29 1638.33 1794.82 1638.33C1825.35 1638.33 1850.13 1638.84 1850.13 1639.46C1850.13 1640.08 1825.39 1640.63 1794.82 1640.63C1764.26 1640.63 1739.52 1640.12 1739.52 1639.46Z" fill="#263238"/>
<path d="M1782.43 1632.86C1781.89 1633.17 1780.61 1631.89 1779.29 1630.18C1777.97 1628.47 1777.07 1626.92 1777.5 1626.29C1777.93 1625.67 1779.67 1626.8 1781.07 1628.66C1782.47 1630.53 1782.98 1632.55 1782.43 1632.86Z" fill="#263238"/>
<path d="M1778.2 1635.19C1777.62 1635.42 1776.45 1633.83 1775.25 1631.77C1774.04 1629.71 1773.19 1627.89 1773.69 1627.5C1774.2 1627.11 1775.87 1628.43 1777.19 1630.64C1778.51 1632.86 1778.78 1634.95 1778.2 1635.19Z" fill="#263238"/>
<path d="M1830.17 1639.23C1829.93 1639.23 1830.48 1637.79 1831.6 1635.96C1833.13 1633.48 1835.09 1631.3 1837.39 1629.52C1839.82 1627.71 1842.79 1626.75 1845.82 1626.8C1848.15 1626.8 1849.39 1627.85 1849.27 1628.08C1849.16 1628.31 1847.84 1628.08 1845.86 1628.39C1843.29 1628.79 1840.85 1629.8 1838.75 1631.34C1836.62 1633.01 1834.65 1634.88 1832.88 1636.94C1831.45 1638.49 1830.44 1639.42 1830.17 1639.23Z" fill="#263238"/>
<path d="M1782.24 1626.22C1782.55 1625.67 1784.06 1625.94 1785.69 1626.53C1787.33 1627.11 1788.72 1627.85 1788.61 1628.47C1788.49 1629.09 1786.86 1629.32 1784.96 1628.66C1783.05 1628 1781.77 1626.76 1782.24 1626.22Z" fill="#263238"/>
<path d="M1783.29 1622.8C1783.29 1622.18 1785.11 1621.67 1787.17 1621.71C1789.23 1621.75 1791.05 1622.29 1791.05 1622.91C1791.05 1623.54 1789.35 1624 1787.17 1624C1785 1624 1783.21 1623.42 1783.29 1622.8Z" fill="#263238"/>
<path d="M1950.6 809.554L1878.87 785.668C1878.87 785.668 1847.22 876.862 1837.51 877.755C1783.75 882.649 1726.23 864.822 1706.04 857.792C1704.02 855.501 1701.69 852.743 1699.08 849.364C1696.85 846.455 1695.13 843.184 1694 839.693C1692.44 835.415 1691.48 830.947 1691.12 826.41C1691.21 825.536 1691.02 824.657 1690.58 823.896C1690.14 823.134 1689.48 822.528 1688.68 822.161C1687.88 821.794 1686.99 821.685 1686.12 821.847C1685.26 822.01 1684.47 822.438 1683.86 823.07C1681.57 826.1 1680.95 837.596 1686.27 850.024C1691.59 862.453 1672.79 852.549 1665.88 849.053C1658.96 845.558 1637.1 835.848 1634.34 837.13C1630.46 839.033 1631.58 843.694 1638.57 846.995C1645.56 850.296 1665.76 861.676 1663.78 865.249C1661.8 868.822 1626.84 850.607 1626.84 850.607C1626.84 850.607 1620.01 845.519 1617.56 849.558C1613.13 856.821 1651.66 873.405 1655.39 874.881C1657.95 875.891 1655.93 879.852 1653.22 878.765C1650.5 877.677 1618.8 859.85 1614.18 867.113C1610.69 872.745 1645.8 881.017 1650.34 888.319C1654.89 895.621 1624.32 879.347 1621.21 884.901C1620.05 886.96 1619.43 888.785 1638.3 895.465C1652.16 899.766 1666.24 903.305 1680.48 906.068V906.263C1680.48 906.263 1869.04 990.582 1909.63 909.331C1952.66 823.109 1950.6 809.554 1950.6 809.554Z" fill="#FFBE9D"/>
<path d="M1906.72 1009.96C1906.72 1009.96 1861 1313.76 1867.57 1328.44C1874.13 1343.12 2109.22 1592.54 2109.22 1592.54L2164.22 1498.32C2164.22 1498.32 1978.76 1291.31 1980.16 1285.76C1981.56 1280.2 2045.88 984.756 2045.88 984.756L1906.72 1009.96Z" fill="#455A64"/>
<path d="M1916.7 1385.18L1955.34 1300.32L1993.99 1215.46L1928.89 1328.28L1916.7 1385.18Z" fill="#263238"/>
<path d="M1939.73 1309.49C1939.91 1310.59 1939.98 1311.71 1939.96 1312.83C1939.96 1315.23 1939.96 1318.46 1940.2 1322.46V1322.15C1954.92 1338.77 1987.54 1376.52 2025.21 1420.64L2090.66 1497.78L2110.31 1521.35C2112.48 1523.99 2114.19 1526.17 2115.55 1527.8C2116.22 1528.52 2116.79 1529.31 2117.26 1530.17C2116.51 1529.55 2115.82 1528.86 2115.2 1528.11L2109.65 1521.9C2104.68 1516.26 2098 1508.42 2089.45 1498.83L2023.43 1422.12C1985.79 1378.04 1953.52 1339.9 1939.42 1322.77C1939.42 1318.89 1939.42 1315.55 1939.61 1313.14C1939.49 1311.92 1939.52 1310.69 1939.73 1309.49Z" fill="#263238"/>
<path d="M2146.58 1478.82C2147.13 1479.17 2134.27 1499.56 2117.92 1524.34C2101.57 1549.12 2087.9 1568.97 2087.39 1568.62C2086.89 1568.27 2099.71 1547.88 2116.06 1523.1C2132.41 1498.32 2146.08 1478.47 2146.58 1478.82Z" fill="#263238"/>
<path d="M1890.17 1124.07C1890.6 1120.89 1927.11 1038.63 1927.11 1038.63L1909.4 1013.65L1906.25 1012.95L1890.17 1124.07Z" fill="#263238"/>
<path d="M1942.53 1007.05L1906.25 1013.11L1927.11 1038.78C1893.43 1114.98 1823.87 1276.32 1815.52 1328.32C1804.41 1397.22 1762.59 1612.43 1766.78 1615.73C1770.97 1619.03 1867.41 1615.73 1867.41 1615.73L1928.89 1328.32L2064.83 1092.88C2081.74 1063.56 2086.68 1028.85 2078.62 995.98L2075.9 984.794" fill="#455A64"/>
<path d="M1833.85 1583.8C1833.88 1583.27 1833.94 1582.74 1834.05 1582.21C1834.05 1581.05 1834.44 1579.49 1834.75 1577.51L1837.74 1559.53C1840.5 1543.8 1844.42 1521.24 1849.39 1493.5C1854.36 1465.77 1860.3 1432.41 1866.87 1395.59C1870.29 1377.18 1873.86 1357.84 1877.55 1337.8C1878.48 1332.83 1879.49 1327.78 1880.46 1322.69C1880.97 1320.13 1881.43 1317.6 1882.01 1314.92C1882.33 1313.64 1882.56 1312.32 1882.95 1311.04L1884.38 1307.16C1888.27 1297.29 1892.7 1287.74 1897.05 1277.68C1932.19 1198.72 1964.9 1127.64 1988.55 1076.22L2016.78 1015.36C2020.09 1008.29 2022.73 1002.78 2024.55 998.893C2025.41 997.107 2026.11 995.669 2026.65 994.621C2026.86 994.116 2027.12 993.634 2027.43 993.184L2026.84 994.737L2024.98 999.087L2017.56 1015.75C2010.92 1030.35 2001.44 1051.33 1989.87 1076.96C1966.57 1128.58 1934.1 1199.73 1898.99 1278.69C1894.64 1288.55 1890.25 1298.34 1886.36 1308.01L1884.97 1311.58C1884.58 1312.83 1884.38 1314.11 1884.07 1315.47C1883.49 1317.95 1883.02 1320.56 1882.48 1323.24C1881.51 1328.32 1880.54 1333.37 1879.57 1338.34C1875.68 1358.35 1872.23 1377.69 1868.77 1396.06C1862.01 1432.88 1855.92 1465.97 1850.79 1493.89C1845.66 1521.82 1841.51 1544.15 1838.63 1559.92C1837.16 1567.69 1835.99 1573.59 1835.21 1577.82C1834.79 1579.76 1834.48 1581.32 1834.24 1582.48C1834.16 1582.94 1834.03 1583.38 1833.85 1583.8Z" fill="#263238"/>
<path d="M1873.16 1588.08C1873.16 1588.7 1849.86 1588.78 1821.47 1588.08C1793.07 1587.38 1769.77 1586.64 1769.77 1586.02C1769.77 1585.4 1793.07 1585.32 1821.5 1585.82C1849.93 1586.33 1873.2 1587.45 1873.16 1588.08Z" fill="#263238"/>
<path d="M1906.25 1013.07L1907.65 1016.37L2081.92 1002.27L2075.78 984.756L1906.25 1013.07Z" fill="#263238"/>
<path d="M1978.22 729.158L1966.57 776.231L1966.14 742.363L1967.03 734.867L1968.08 729.158L1952.55 723.915L1944.54 736.382H1942.21C1942.21 736.382 1879.49 730.129 1857.55 813.011L1837.47 862.142L1898.25 892.436V896.32L1902.13 1013.57L2077.68 985.144C2078.38 958.811 2051.51 911.117 2057.45 887.271L2077.68 805.709L2051.16 729.702L2032.79 730.284L2022.57 718.206L1978.41 729.158" fill="#263238"/>
<path d="M1899.34 891.737C1897.92 891.343 1896.6 890.669 1895.45 889.756C1892.21 887.531 1889.45 884.678 1887.34 881.367C1884.12 876.407 1882.66 870.515 1883.18 864.628C1883.48 857.428 1885.85 850.467 1890.02 844.587C1893.25 839.976 1897.5 836.175 1902.44 833.479L1901.9 834.178C1903.38 823.42 1904.7 814.176 1905.78 807.612C1906.16 804.11 1906.81 800.642 1907.73 797.242C1907.73 800.778 1907.47 804.309 1906.95 807.807C1906.29 814.37 1905.24 823.692 1903.92 834.45V834.916L1903.45 835.188C1898.18 838.191 1893.74 842.472 1890.55 847.636C1887.36 852.8 1885.52 858.683 1885.2 864.744C1884.61 870.278 1885.84 875.853 1888.7 880.629C1890.64 883.862 1893.14 886.728 1896.07 889.096C1898.29 890.805 1899.38 891.582 1899.34 891.737Z" fill="#455A64"/>
<path d="M1906.06 812.856C1905.55 813.089 1903.84 810.603 1902.17 807.263C1900.5 803.923 1899.61 801.01 1900.11 800.777C1900.62 800.544 1902.33 803.029 1904 806.37C1905.67 809.71 1906.44 812.39 1906.06 812.856Z" fill="#455A64"/>
<path d="M1726.47 779.532L2278.67 885.601C2318.06 893.174 2342.84 929.139 2338.37 970.114C2338.31 970.69 2338.2 971.261 2338.06 971.822C2336.22 981.509 2332.48 990.733 2327.04 998.959C2321.61 1007.18 2314.59 1014.25 2306.4 1019.74C2298.21 1025.23 2289.01 1029.03 2279.34 1030.94C2269.66 1032.84 2259.71 1032.8 2250.05 1030.82L1708.87 921.604L1589.52 826.216L1726.47 779.532Z" fill="#FF725E"/>
<path d="M1726.47 779.532C1726.47 779.532 1756.6 790.834 1750.39 819.73C1744.18 848.626 1715.01 847.422 1715.01 847.422C1715.01 847.422 1743.36 853.714 1735.52 894.223C1730.43 920.322 1708.87 921.682 1708.87 921.682L1589.52 826.216L1726.47 779.532Z" fill="#E0E0E0"/>
<path d="M1615.46 846.956C1627.12 841.169 1631.19 825.75 1627.12 813.438L1589.64 826.216L1615.46 846.956Z" fill="#455A64"/>
<path d="M2271.14 960.132L2269.7 959.938L2265.43 959.239L2249.16 956.326C2235.02 953.762 2214.63 949.917 2189.38 945.062C2138.89 935.353 2069.41 921.41 1992.67 905.563L1796.22 864.705L1736.68 852.238L1720.52 848.781L1716.33 847.81C1715.84 847.739 1715.35 847.609 1714.89 847.422C1715.39 847.441 1715.88 847.506 1716.37 847.616L1720.6 848.354L1736.84 851.461L1796.61 863.346L1993.21 903.622C2069.92 919.468 2139.44 933.644 2189.81 943.703L2249.43 955.588L2265.63 958.889L2269.86 959.782C2270.3 959.846 2270.73 959.963 2271.14 960.132Z" fill="#455A64"/>
<path d="M2250.05 1030.82C2259.71 1032.8 2269.66 1032.84 2279.34 1030.94C2289.01 1029.03 2298.21 1025.23 2306.4 1019.74C2314.59 1014.25 2321.61 1007.18 2327.04 998.958C2332.48 990.733 2336.22 981.509 2338.06 971.822C2338.2 971.261 2338.31 970.69 2338.37 970.113C2342.84 929.138 2318.06 893.174 2278.67 885.6L2250.05 1030.82Z" fill="#455A64"/>
<path d="M2030.57 801.631C2030.57 801.631 1996.98 907.622 1987.62 909.952C1935.26 923.313 1875.65 914.807 1854.63 911.04C1852.26 909.098 1849.47 906.69 1846.4 903.816C1843.75 901.288 1841.55 898.334 1839.88 895.077C1837.65 891.107 1835.99 886.845 1834.94 882.416C1834.9 881.522 1834.58 880.663 1834.02 879.963C1833.46 879.264 1832.7 878.759 1831.84 878.522C1830.97 878.284 1830.06 878.327 1829.22 878.643C1828.38 878.958 1827.67 879.531 1827.17 880.28C1825.35 883.62 1826.59 895.077 1833.78 906.496C1833.78 906.496 1791.68 933.217 1782.47 932.984C1773.27 932.751 1746.9 932.09 1749.65 935.741C1752.41 939.392 1782.47 944.402 1782.47 944.402L1836.85 962.851C1836.85 962.851 2036.32 1016.53 2063.62 929.838C2080.33 876.706 2091.9 845.441 2094.5 832.741L2030.57 801.631Z" fill="#FFBE9D"/>
<path d="M2051.43 729.857C2051.43 729.857 2095.32 737.625 2097.03 809.477C2097.84 853.171 2088.42 896.451 2069.53 935.858L1992.32 895.31C2009.66 860.607 2022.7 823.919 2031.16 786.057L2051.2 729.818L2051.43 729.857Z" fill="#263238"/>
<path d="M2028.9 790.057C2028.9 791.547 2028.74 793.033 2028.4 794.485C2027.97 797.281 2027.23 801.32 2026.15 806.136C2023.3 819.059 2019.7 831.806 2015.39 844.315C2011.05 856.823 2005.98 869.065 2000.2 880.979C1997.99 885.562 1996.08 889.212 1994.69 891.659C1994.05 893.033 1993.27 894.335 1992.36 895.543C1992.71 894.103 1993.26 892.718 1993.99 891.426C1995.31 888.436 1996.98 884.785 1998.92 880.513C2003.04 871.269 2008.4 858.336 2013.48 843.771C2018.57 829.207 2022.26 815.729 2024.75 805.903C2025.89 801.32 2026.86 797.436 2027.66 794.252C2027.9 792.808 2028.32 791.4 2028.9 790.057Z" fill="#455A64"/>
</svg>
