<svg width="233" height="316" viewBox="0 0 233 316" fill="none" xmlns="http://www.w3.org/2000/svg">
<path fill-rule="evenodd" clip-rule="evenodd" d="M232.073 234.21C232.057 234.985 231.995 235.757 231.888 236.521C232.167 238.277 232.124 240.085 231.765 241.818C231.405 243.551 230.737 245.165 229.808 246.545C228.879 247.925 227.712 249.036 226.391 249.799C225.07 250.562 223.627 250.958 222.167 250.958H37.25C35.0818 250.958 32.9349 251.481 30.9317 252.497C28.9286 253.512 27.1085 255.001 25.5754 256.877C24.0422 258.754 22.8261 260.981 21.9964 263.433C21.1666 265.885 20.7396 268.513 20.7396 271.167C20.7396 273.82 21.1666 276.448 21.9964 278.9C22.8261 281.352 24.0422 283.58 25.5754 285.456C27.1085 287.333 28.9286 288.821 30.9317 289.837C32.9349 290.852 35.0818 291.375 37.25 291.375H222.167C224.794 291.375 227.314 292.652 229.171 294.926C231.029 297.2 232.073 300.284 232.073 303.5C232.073 306.716 231.029 309.8 229.171 312.074C227.314 314.348 224.794 315.625 222.167 315.625H37.25C27.6166 315.625 18.3777 310.941 11.5658 302.603C4.75396 294.266 0.927094 282.958 0.927094 271.167V44.8333C0.927094 33.0422 4.75396 21.7341 11.5658 13.3965C18.3777 5.05899 27.6166 0.375 37.25 0.375H214.242C224.095 0.375 232.073 10.1397 232.073 22.2V234.21ZM76.875 65.0417C74.2477 65.0417 71.728 66.3191 69.8702 68.593C68.0125 70.8669 66.9688 73.9509 66.9688 77.1667C66.9688 80.3824 68.0125 83.4665 69.8702 85.7403C71.728 88.0142 74.2477 89.2917 76.875 89.2917H156.125C158.752 89.2917 161.272 88.0142 163.13 85.7403C164.988 83.4665 166.031 80.3824 166.031 77.1667C166.031 73.9509 164.988 70.8669 163.13 68.593C161.272 66.3191 158.752 65.0417 156.125 65.0417H76.875Z" fill="black"/>
</svg>
